<?xml version="1.0" standalone="no"?>
<!DOCTYPE svg PUBLIC "-//W3C//DTD SVG 20010904//EN"
 "http://www.w3.org/TR/2001/REC-SVG-20010904/DTD/svg10.dtd">
<svg version="1.0" xmlns="http://www.w3.org/2000/svg"
 width="280.000000pt" height="280.000000pt" viewBox="0 0 280.000000 280.000000"
 preserveAspectRatio="xMidYMid meet">
<metadata>
Created by potrace 1.14, written by Peter Selinger 2001-2017
</metadata>
<g transform="translate(0.000000,280.000000) scale(0.100000,-0.100000)"
fill="#000000" stroke="none">
<path d="M1197 2624 c-141 -26 -338 -105 -424 -170 -18 -14 -33 -21 -33 -17 0
4 -5 0 -11 -9 -5 -10 -15 -18 -20 -18 -6 0 -16 -6 -23 -12 -7 -7 -32 -29 -56
-48 -284 -233 -441 -572 -435 -938 3 -150 8 -186 42 -312 43 -158 141 -346
242 -464 54 -64 168 -168 221 -203 30 -20 57 -40 58 -45 2 -4 10 -8 17 -8 7 0
15 -3 17 -7 4 -11 130 -73 146 -73 6 0 12 -5 12 -12 0 -6 3 -8 6 -5 4 3 16 1
28 -5 11 -6 34 -15 51 -19 16 -4 48 -13 70 -19 94 -25 148 -32 280 -35 84 -2
170 2 215 10 41 7 78 11 82 9 5 -3 8 0 8 5 0 6 13 11 28 11 15 0 32 4 37 8 6
5 39 19 75 31 86 30 255 121 322 173 81 62 209 195 262 271 94 136 169 316
200 481 28 145 9 484 -29 542 -8 13 -25 59 -38 104 -13 44 -33 92 -45 107 -12
15 -27 42 -33 60 -6 18 -14 33 -19 33 -4 0 -15 19 -25 42 -9 23 -26 53 -38 68
-62 73 -244 233 -333 291 -137 91 -239 130 -456 178 -59 14 -316 10 -401 -5z
m563 -218 c0 -11 13 -14 53 -14 43 1 62 -5 107 -33 66 -40 107 -77 123 -110 7
-13 23 -25 35 -27 23 -4 26 -12 15 -50 -5 -20 -10 -23 -34 -18 -16 3 -39 2
-52 -3 -17 -7 -29 -4 -46 10 -13 10 -30 19 -39 19 -8 0 -23 6 -31 14 -29 26
-91 56 -115 56 -40 0 -56 11 -56 36 0 13 -4 24 -10 24 -22 0 -8 17 25 30 36
14 46 36 20 46 -17 7 -21 34 -5 34 6 0 10 -6 10 -14z m-1120 -91 c-13 -14 -28
-25 -33 -25 -6 0 0 11 13 25 13 14 28 25 33 25 6 0 0 -11 -13 -25z m993 -5
c-3 -11 -8 -20 -12 -20 -3 0 -12 9 -19 20 -11 18 -10 20 12 20 19 0 23 -4 19
-20z m-33 -50 c0 -5 -10 -10 -22 -9 -22 0 -22 1 -3 9 11 5 21 9 23 9 1 1 2 -3
2 -9z"/>
</g>
</svg>
